{
  "accessors": [
    {
      "bufferView": 2,
      "componentType": 5126,
      "count": 18224,
      "max": [
        2.5798628330230713,
        1.080304741859436,
        5.8529758453369141
      ],
      "min": [
        -2.7425320148468018,
        -1.9657939672470093,
        2.6875953674316406
      ],
      "type": "VEC3"
    },
    {
      "bufferView": 2,
      "byteOffset": 218688,
      "componentType": 5126,
      "count": 18224,
      "max": [
        0.99988394975662231,
        0.98995685577392578,
        0.99856168031692505
      ],
      "min": [
        -0.99964821338653564,
        -0.99994313716888428,
        -0.99875569343566895
      ],
      "type": "VEC3"
    },
    {
      "bufferView": 1,
      "componentType": 5126,
      "count": 18224,
      "max": [
        0.99319350719451904,
        0.68323081731796265
      ],
      "min": [
        0.0063402904197573662,
        0.28210818767547607
      ],
      "type": "VEC2"
    },
    {
      "bufferView": 0,
      "componentType": 5125,
      "count": 74496,
      "max": [
        18223
      ],
      "min": [
        0
      ],
      "type": "SCALAR"
    },
    {
      "bufferView": 2,
      "byteOffset": 437376,
      "componentType": 5126,
      "count": 3015,
      "max": [
        0.33837464451789856,
        0.4453132152557373,
        0.53605228662490845
      ],
      "min": [
        -0.39094120264053345,
        -0.4005693793296814,
        -0.52899414300918579
      ],
      "type": "VEC3"
    },
    {
      "bufferView": 2,
      "byteOffset": 473556,
      "componentType": 5126,
      "count": 3015,
      "max": [
        0.99987685680389404,
        0.96267491579055786,
        0.99443632364273071
      ],
      "min": [
        -0.7673649787902832,
        -0.9998326301574707,
        -0.99920696020126343
      ],
      "type": "VEC3"
    },
    {
      "bufferView": 1,
      "byteOffset": 145792,
      "componentType": 5126,
      "count": 3015,
      "max": [
        0,
        0
      ],
      "min": [
        0,
        0
      ],
      "type": "VEC2"
    },
    {
      "bufferView": 0,
      "byteOffset": 297984,
      "componentType": 5125,
      "count": 15870,
      "max": [
        3014
      ],
      "min": [
        0
      ],
      "type": "SCALAR"
    },
    {
      "bufferView": 2,
      "byteOffset": 509736,
      "componentType": 5126,
      "count": 1872,
      "max": [
        -0.050185322761535645,
        1.904716968536377,
        1.1719692945480347
      ],
      "min": [
        -5.2561907768249512,
        -0.20904794335365295,
        -1.010388970375061
      ],
      "type": "VEC3"
    },
    {
      "bufferView": 2,
      "byteOffset": 532200,
      "componentType": 5126,
      "count": 1872,
      "max": [
        0.99971318244934082,
        0.99317151308059692,
        0.98013406991958618
      ],
      "min": [
        -0.99957799911499023,
        -0.99258315563201904,
        -0.98008430004119873
      ],
      "type": "VEC3"
    },
    {
      "bufferView": 1,
      "byteOffset": 169912,
      "componentType": 5126,
      "count": 1872,
      "max": [
        1,
        1
      ],
      "min": [
        0,
        0
      ],
      "type": "VEC2"
    },
    {
      "bufferView": 0,
      "byteOffset": 361464,
      "componentType": 5125,
      "count": 10224,
      "max": [
        1871
      ],
      "min": [
        0
      ],
      "type": "SCALAR"
    }
  ],
  "asset": {
    "extras": {
      "author": "Jacob.Elhatmi (https://sketchfab.com/Jacob.Elhatmi)",
      "license": "CC-BY-4.0 (http://creativecommons.org/licenses/by/4.0/)",
      "source": "https://sketchfab.com/3d-models/face-mask-7f32cc1b597e4dbcaf04a3818b9e82c3",
      "title": "Face Mask"
    },
    "generator": "Sketchfab-9.27.1",
    "version": "2.0"
  },
  "bufferViews": [
    {
      "buffer": 0,
      "byteLength": 402360,
      "byteOffset": 0,
      "name": "floatBufferViews",
      "target": 34963
    },
    {
      "buffer": 0,
      "byteLength": 184888,
      "byteOffset": 402360,
      "byteStride": 8,
      "name": "floatBufferViews",
      "target": 34962
    },
    {
      "buffer": 0,
      "byteLength": 554664,
      "byteOffset": 587248,
      "byteStride": 12,
      "name": "floatBufferViews",
      "target": 34962
    }
  ],
  "buffers": [
    {
      "byteLength": 1141912,
      "uri": "scene.bin"
    }
  ],
  "materials": [
    {
      "doubleSided": true,
      "emissiveFactor": [
        0,
        0,
        0
      ],
      "name": "Cloth3",
      "pbrMetallicRoughness": {
        "baseColorFactor": [
          0,
          0,
          0,
          1
        ],
        "metallicFactor": 0,
        "roughnessFactor": 0.97651523512452143
      }
    },
    {
      "doubleSided": true,
      "emissiveFactor": [
        0,
        0,
        0
      ],
      "name": "Filter",
      "pbrMetallicRoughness": {
        "baseColorFactor": [
          0.0052982696389269239,
          0.0052982696389269239,
          0.0052982696389269239,
          1
        ],
        "metallicFactor": 0.77293226941990645,
        "roughnessFactor": 0.40924032089215512
      }
    },
    {
      "doubleSided": true,
      "emissiveFactor": [
        0,
        0,
        0
      ],
      "name": "Earloop",
      "pbrMetallicRoughness": {
        "baseColorFactor": [
          0.031296299999999999,
          0.031296299999999999,
          0.031296299999999999,
          1
        ],
        "metallicFactor": 0,
        "roughnessFactor": 0.99596491436699974
      }
    }
  ],
  "meshes": [
    {
      "name": "Plane.001_Cloth3_0",
      "primitives": [
        {
          "attributes": {
            "NORMAL": 1,
            "POSITION": 0,
            "TEXCOORD_0": 2
          },
          "indices": 3,
          "material": 0,
          "mode": 4
        }
      ]
    },
    {
      "name": "Circle_Filter_0",
      "primitives": [
        {
          "attributes": {
            "NORMAL": 5,
            "POSITION": 4,
            "TEXCOORD_0": 6
          },
          "indices": 7,
          "material": 1,
          "mode": 4
        }
      ]
    },
    {
      "name": "NurbsPath_Earloop_0",
      "primitives": [
        {
          "attributes": {
            "NORMAL": 9,
            "POSITION": 8,
            "TEXCOORD_0": 10
          },
          "indices": 11,
          "material": 2,
          "mode": 4
        }
      ]
    }
  ],
  "nodes": [
    {
      "children": [
        1
      ],
      "name": "RootNode (gltf orientation matrix)",
      "rotation": [
        -0.70710678118654746,
        -0,
        -0,
        0.70710678118654757
      ]
    },
    {
      "children": [
        2
      ],
      "name": "RootNode (model correction matrix)"
    },
    {
      "children": [
        3
      ],
      "matrix": [
        1,
        0,
        0,
        0,
        0,
        0,
        1,
        0,
        0,
        -1,
        0,
        0,
        0,
        0,
        0,
        1
      ],
      "name": "89985de4909a4ca3bddc6a0c407f6b11.fbx"
    },
    {
      "children": [
        4
      ],
      "name": "RootNode"
    },
    {
      "children": [
        5,
        6,
        8
      ],
      "matrix": [
        100,
        0,
        0,
        0,
        0,
        -1.6292067939183141e-05,
        -99.999999999998678,
        0,
        0,
        99.999999999998678,
        -1.6292067939183141e-05,
        0,
        0,
        0,
        0,
        1
      ],
      "name": "Plane.001"
    },
    {
      "mesh": 0,
      "name": "Plane.001_Cloth3_0"
    },
    {
      "children": [
        7
      ],
      "matrix": [
        0.99999994039535522,
        0,
        0,
        0,
        0,
        0.99999994039535522,
        0,
        0,
        0,
        0,
        0.99999994039535522,
        0,
        1.543559193611145,
        -0.36068534851074219,
        3.8926053047180176,
        1
      ],
      "name": "Circle"
    },
    {
      "mesh": 1,
      "name": "Circle_Filter_0"
    },
    {
      "children": [
        9
      ],
      "matrix": [
        0.99999994039535522,
        0,
        0,
        0,
        0,
        0.99999994039535522,
        0,
        0,
        0,
        0,
        1,
        0,
        2.576138973236084,
        0.91778826713562012,
        3.6681280136108398,
        1
      ],
      "name": "NurbsPath"
    },
    {
      "mesh": 2,
      "name": "NurbsPath_Earloop_0"
    }
  ],
  "scene": 0,
  "scenes": [
    {
      "name": "OSG_Scene",
      "nodes": [
        0
      ]
    }
  ]
}

